<svg width="575" height="100" fill="none" xmlns="http://www.w3.org/2000/svg"><path d="M174.558 62.042c0 7.591-7.069 13.089-17.016 13.089h-23.299V28.01h22.513c9.686 0 16.493 5.235 16.493 12.565 0 4.974-2.618 8.115-6.545 9.948 4.189 1.57 7.854 5.759 7.854 11.518zm-30.105-25.393v10.21h12.042c3.665 0 6.021-2.095 6.021-4.974 0-2.88-2.618-5.236-6.021-5.236h-12.042zm13.089 29.843c3.927 0 6.806-2.356 6.806-5.759 0-3.403-2.618-5.76-6.806-5.76h-13.089v11.52h13.089zm55.497 8.378l-16.23-18.587h-2.618v18.586H183.72V28.011h10.471v18.062h2.618l15.707-18.063h12.303l-19.633 22.514 21.466 24.345h-13.613zm13.613-23.3c0-14.135 10.471-24.345 25.131-24.345 14.659 0 25.131 10.21 25.131 24.346s-10.472 24.345-25.131 24.345c-14.66 0-25.131-10.209-25.131-24.345zm39.267 0c0-8.9-5.759-14.92-14.136-14.92-8.377 0-14.136 6.02-14.136 14.92 0 8.901 5.759 14.922 14.136 14.922 8.377 0 14.136-6.02 14.136-14.921zm51.047-23.56h10.471v46.86h-10.471V56.02h-20.942v18.848h-10.472V28.011h10.472v18.586h20.942V28.01zm32.984 46.86V37.434h-16.23V28.01h42.67v9.425h-16.23v37.434h-10.21zm71.466-26.179V74.87h-7.592l-2.094-7.33c-2.356 3.927-7.33 8.377-14.921 8.377-9.424 0-16.231-6.282-16.231-14.921s6.807-14.66 20.681-14.66h10.209c-.523-6.02-3.664-10.21-9.424-10.21-4.712 0-7.853 2.619-9.424 5.498l-9.424-1.57c2.356-8.116 10.471-12.828 19.372-12.828 11.518 0 18.848 7.854 18.848 21.466zm-10.209 5.76h-9.686c-7.854 0-10.471 2.617-10.471 6.02 0 3.927 3.141 6.545 8.377 6.545 6.806 0 11.78-4.974 11.78-12.566zM461.73 74.87L445.5 56.282h-2.618v18.586h-10.471V28.011h10.471v18.062h2.618l15.707-18.063h12.304l-19.634 22.514 21.466 24.345H461.73zm32.461 0V37.434h-16.23V28.01h42.67v9.425h-16.23v37.434h-10.21zm78.796-20.42h-37.696c1.047 7.33 6.282 12.042 14.136 12.042 5.497 0 9.686-2.356 12.042-5.759l9.685 1.57c-3.403 8.901-12.565 13.613-22.513 13.613-14.136 0-24.345-10.209-24.345-24.345s10.209-24.346 24.345-24.346c14.137 0 24.346 10.21 24.346 23.822.262 1.31 0 2.356 0 3.404zm-36.911-8.115h25.916c-1.832-5.759-6.544-9.947-13.089-9.947-6.283-.262-11.256 3.926-12.827 9.947z" fill="#fff"/><path fill-rule="evenodd" clip-rule="evenodd" d="M7.765 7.03C.735 14.058.735 25.372.735 48v4c0 22.627 0 33.941 7.03 40.97 7.03 7.03 18.343 7.03 40.97 7.03h4c22.628 0 33.942 0 40.971-7.03 7.029-7.029 7.029-18.343 7.029-40.97v-4c0-22.627 0-33.941-7.029-40.97C86.676 0 75.363 0 52.736 0h-4C26.108 0 14.794 0 7.765 7.03zm9.846 23.387c.541 26 13.541 41.625 36.333 41.625h1.292V57.167c8.375.833 14.708 6.958 17.25 14.875h11.833c-3.25-11.834-11.792-18.375-17.125-20.875 5.333-3.084 12.833-10.584 14.625-20.75h-10.75c-2.334 8.25-9.25 15.75-15.833 16.458V30.417h-10.75V59.25c-6.667-1.666-15.084-9.75-15.459-28.833H17.611z" fill="#fff"/></svg>