<svg width="277" height="48" fill="none" xmlns="http://www.w3.org/2000/svg"><path d="M84.308 29.78c0 3.644-3.393 6.283-8.168 6.283H64.957V13.445h10.806c4.65 0 7.916 2.513 7.916 6.031 0 2.388-1.256 3.896-3.14 4.775a5.851 5.851 0 013.769 5.53zm-14.45-12.188v4.9h5.78c1.759 0 2.89-1.005 2.89-2.387 0-1.382-1.257-2.513-2.89-2.513h-5.78zm6.282 14.324c1.885 0 3.267-1.13 3.267-2.764s-1.256-2.765-3.267-2.765h-6.283v5.53h6.283zm26.639 4.021l-7.79-8.921h-1.257v8.921h-5.026V13.445h5.026v8.67h1.256l7.54-8.67h5.905l-9.424 10.806 10.304 11.686h-6.534zm6.534-11.183c0-6.785 5.026-11.686 12.063-11.686 7.036 0 12.063 4.9 12.063 11.686 0 6.785-5.027 11.686-12.063 11.686-7.037 0-12.063-4.9-12.063-11.686zm18.848 0c0-4.272-2.764-7.162-6.785-7.162-4.021 0-6.786 2.89-6.786 7.162s2.765 7.162 6.786 7.162c4.021 0 6.785-2.89 6.785-7.162zm24.502-11.309h5.027v22.492h-5.027V26.89h-10.052v9.047h-5.026V13.445h5.026v8.921h10.052v-8.92zm15.833 22.492V17.97h-7.79v-4.524h20.481v4.524h-7.79v17.968h-4.901zM202.8 23.372v12.565h-3.644l-1.005-3.518c-1.131 1.885-3.519 4.02-7.163 4.02-4.523 0-7.79-3.015-7.79-7.161s3.267-7.037 9.926-7.037h4.901c-.251-2.89-1.759-4.9-4.524-4.9-2.261 0-3.769 1.256-4.523 2.638l-4.524-.754c1.131-3.895 5.027-6.157 9.299-6.157 5.529 0 9.047 3.77 9.047 10.304zm-4.901 2.764h-4.649c-3.77 0-5.026 1.257-5.026 2.89 0 1.885 1.508 3.142 4.021 3.142 3.267 0 5.654-2.388 5.654-6.032zm24.252 9.801l-7.791-8.921h-1.256v8.921h-5.026V13.445h5.026v8.67h1.256l7.54-8.67h5.905l-9.424 10.806 10.304 11.686h-6.534zm15.581 0V17.97h-7.791v-4.524h20.482v4.524h-7.79v17.968h-4.901zm37.822-9.8H257.46c.502 3.517 3.015 5.78 6.785 5.78 2.639 0 4.649-1.132 5.78-2.765l4.649.754c-1.633 4.272-6.031 6.534-10.806 6.534-6.785 0-11.686-4.9-11.686-11.686 0-6.785 4.901-11.686 11.686-11.686s11.686 4.9 11.686 11.435c.125.628 0 1.13 0 1.633zm-17.717-3.896h12.439c-.879-2.764-3.141-4.775-6.282-4.775-3.016-.126-5.403 1.885-6.157 4.775z" fill="#000"/><path fill-rule="evenodd" clip-rule="evenodd" d="M4.247 3.374C.873 6.748.873 12.18.873 23.04v1.92c0 10.861 0 16.292 3.374 19.666C7.621 48 13.052 48 23.913 48h1.92c10.861 0 16.292 0 19.666-3.374 3.374-3.374 3.374-8.805 3.374-19.666v-1.92c0-10.861 0-16.292-3.374-19.666C42.125 0 36.694 0 25.833 0h-1.92C13.052 0 7.621 0 4.247 3.374zM8.973 14.6c.26 12.48 6.5 19.98 17.44 19.98h.62v-7.14c4.02.4 7.06 3.34 8.28 7.14h5.68c-1.56-5.68-5.66-8.82-8.22-10.02 2.56-1.48 6.16-5.08 7.02-9.96h-5.16c-1.12 3.96-4.44 7.56-7.6 7.9v-7.9h-5.16v13.84c-3.2-.8-7.24-4.68-7.42-13.84h-5.48z" fill="#000"/></svg>